<svg xmlns="http://www.w3.org/2000/svg" viewBox="0 0 480 340" font-family="Segoe UI, Helvetica, Arial, sans-serif">
<rect x="0" y="0" width="480" height="340" fill="white"/>
<text x="16" y="22" font-size="15" font-weight="700" fill="#1f2937">Selective generation: risk vs answer rate</text>
<polyline points="123.2,280.0 260.8,280.0 356.3,270.5 382.6,252.8 398.2,245.1 414.3,229.3 414.3,229.3 414.3,229.3 419.6,221.6 419.6,221.6 419.6,221.6 419.6,221.6 419.6,221.6 419.6,221.6 419.6,221.6 419.6,221.6 419.6,221.6 419.6,221.6 419.6,221.6 419.6,221.6 419.6,221.6 419.6,221.6 419.6,221.6 419.6,221.6 419.6,221.6 419.6,221.6 419.6,221.6 419.6,221.6 419.6,221.6 419.6,221.6 419.6,221.6 419.6,221.6 419.6,221.6 419.6,221.6 419.6,221.6 419.6,221.6 419.6,221.6 419.6,221.6 419.6,221.6 440.0,224.8" fill="none" stroke="#4f46e5" stroke-width="2"/>
<circle cx="417.3" cy="232.1" r="4" fill="#10b981"/>
<text x="417.3" y="225.1" font-size="8.5" fill="#166534" text-anchor="middle">β=0.1</text>
<circle cx="437.3" cy="225.0" r="4" fill="#10b981"/>
<text x="437.3" y="218.0" font-size="8.5" fill="#166534" text-anchor="middle">β=0.2</text>
<circle cx="437.3" cy="225.0" r="4" fill="#10b981"/>
<text x="437.3" y="218.0" font-size="8.5" fill="#166534" text-anchor="middle">β=0.3</text>
<circle cx="437.3" cy="225.0" r="4" fill="#10b981"/>
<text x="437.3" y="218.0" font-size="8.5" fill="#166534" text-anchor="middle">β=0.4</text>
<line x1="60" y1="280" x2="440" y2="280" stroke="#cbd5e1"/>
<line x1="60" y1="280" x2="60" y2="50" stroke="#cbd5e1"/>
<text x="60.0" y="296" font-size="10" fill="#64748b" text-anchor="middle">0.00</text>
<text x="155.0" y="296" font-size="10" fill="#64748b" text-anchor="middle">0.25</text>
<text x="250.0" y="296" font-size="10" fill="#64748b" text-anchor="middle">0.50</text>
<text x="345.0" y="296" font-size="10" fill="#64748b" text-anchor="middle">0.75</text>
<text x="440.0" y="296" font-size="10" fill="#64748b" text-anchor="middle">1.00</text>
<text x="250.0" y="334" font-size="11" fill="#475569" text-anchor="middle">answer rate (coverage)</text>
<text x="14" y="44" font-size="11" fill="#475569">selective risk (answered error)</text>
<text x="436" y="58" font-size="9" fill="#10b981" text-anchor="end">● LTT-controlled thresholds</text>
</svg>