<svg xmlns="http://www.w3.org/2000/svg" viewBox="0 0 480 360" font-family="Segoe UI, Helvetica, Arial, sans-serif">
<rect x="0" y="0" width="480" height="360" fill="white"/>
<text x="16" y="22" font-size="15" font-weight="700" fill="#1f2937">Marginal coverage vs target (guarantee)</text>
<line x1="60" y1="300" x2="440" y2="300" stroke="#cbd5e1"/>
<line x1="60" y1="300" x2="60" y2="50" stroke="#cbd5e1"/>
<line x1="60.0" y1="300.0" x2="440.0" y2="50.0" stroke="#94a3b8" stroke-dasharray="4 4"/>
<text x="79.00000000000001" y="225.0" font-size="10" fill="#94a3b8">y = x (ideal)</text>
<polyline points="392.5,54.8 345.0,99.9 297.5,135.6 250.0,166.1 155.0,228.0" fill="none" stroke="#4f46e5" stroke-width="2"/>
<circle cx="392.5" cy="54.8" r="4" fill="#4f46e5"/>
<text x="392.5" y="46.8" font-size="9" fill="#334155" text-anchor="middle">0.99</text>
<circle cx="345.0" cy="99.9" r="4" fill="#4f46e5"/>
<text x="345.0" y="91.9" font-size="9" fill="#334155" text-anchor="middle">0.92</text>
<circle cx="297.5" cy="135.6" r="4" fill="#4f46e5"/>
<text x="297.5" y="127.6" font-size="9" fill="#334155" text-anchor="middle">0.86</text>
<circle cx="250.0" cy="166.1" r="4" fill="#4f46e5"/>
<text x="250.0" y="158.1" font-size="9" fill="#334155" text-anchor="middle">0.81</text>
<circle cx="155.0" cy="228.0" r="4" fill="#4f46e5"/>
<text x="155.0" y="220.0" font-size="9" fill="#334155" text-anchor="middle">0.72</text>
<text x="60.0" y="316" font-size="10" fill="#64748b" text-anchor="middle">0.6</text>
<text x="50" y="303.0" font-size="10" fill="#64748b" text-anchor="end">0.6</text>
<text x="155.0" y="316" font-size="10" fill="#64748b" text-anchor="middle">0.7</text>
<text x="50" y="240.5" font-size="10" fill="#64748b" text-anchor="end">0.7</text>
<text x="250.0" y="316" font-size="10" fill="#64748b" text-anchor="middle">0.8</text>
<text x="50" y="178.0" font-size="10" fill="#64748b" text-anchor="end">0.8</text>
<text x="345.0" y="316" font-size="10" fill="#64748b" text-anchor="middle">0.9</text>
<text x="50" y="115.5" font-size="10" fill="#64748b" text-anchor="end">0.9</text>
<text x="440.0" y="316" font-size="10" fill="#64748b" text-anchor="middle">1.0</text>
<text x="50" y="53.0" font-size="10" fill="#64748b" text-anchor="end">1.0</text>
<text x="250.0" y="354" font-size="11" fill="#475569" text-anchor="middle">target coverage (1 - α)</text>
<text x="16" y="44" font-size="11" fill="#475569">empirical coverage</text>
</svg>